<?xml version="1.0" encoding="UTF-8"?>
<svg id="Calque_2" data-name="Calque 2" xmlns="http://www.w3.org/2000/svg" viewBox="0 0 35.9 35.9">
  <defs>
    <style>
      .cls-1 {
        fill: #fff;
      }
    </style>
  </defs>
  <g id="Calque_1-2" data-name="Calque 1">
    <path class="cls-1" d="M5.24,20.94c.41,0,.75.34.75.75v5.98c0,.41-.34.75-.75.75s-.75-.34-.75-.75v-5.98c0-.41.34-.75.75-.75ZM8.97,15.71v11.97c0,.41.34.75.75.75s.75-.34.75-.75v-11.97c0-.41-.34-.75-.75-.75s-.75.34-.75.75ZM35.68,34.62c.29.29.29.77,0,1.06s-.77.29-1.06,0l-5.76-5.76c-1.15.92-2.59,1.5-4.18,1.5-3.71,0-6.73-3.02-6.73-6.73s3.02-6.73,6.73-6.73,6.73,3.02,6.73,6.73c0,1.59-.57,3.03-1.5,4.18l5.76,5.76ZM29.91,24.68c0-2.89-2.35-5.24-5.24-5.24s-5.24,2.35-5.24,5.24,2.35,5.24,5.24,5.24,5.24-2.35,5.24-5.24ZM35.9,6.73v19.44c0,.37-.04,1.35-.44,2.49-.13.39-.56.6-.95.46-.39-.14-.6-.56-.46-.95.33-.95.35-1.77.35-2v-14.21H1.5v14.21c0,2.89,2.35,5.24,5.24,5.24h10.47c.41,0,.75.34.75.75s-.34.75-.75.75H6.73c-3.71,0-6.73-3.02-6.73-6.73V6.73C0,3.02,3.02,0,6.73,0h22.44c3.71,0,6.73,3.02,6.73,6.73ZM34.4,10.47v-3.74c0-2.89-2.35-5.24-5.24-5.24H6.73C3.84,1.5,1.5,3.84,1.5,6.73v3.74h32.91ZM5.98,4.49c-.83,0-1.5.67-1.5,1.5s.67,1.5,1.5,1.5,1.5-.67,1.5-1.5-.67-1.5-1.5-1.5ZM10.47,4.49c-.83,0-1.5.67-1.5,1.5s.67,1.5,1.5,1.5,1.5-.67,1.5-1.5-.67-1.5-1.5-1.5ZM14.96,4.49c-.83,0-1.5.67-1.5,1.5s.67,1.5,1.5,1.5,1.5-.67,1.5-1.5-.67-1.5-1.5-1.5ZM13.46,18.7v8.97c0,.41.34.75.75.75s.75-.34.75-.75v-8.97c0-.41-.34-.75-.75-.75s-.75.34-.75.75Z"/>
  </g>
</svg>