<?xml version="1.0" encoding="UTF-8"?>
<svg id="Calque_2" data-name="Calque 2" xmlns="http://www.w3.org/2000/svg" viewBox="0 0 15.36 7.87">
  <defs>
    <style>
      .cls-1 {
        fill: #e5373f;
      }
    </style>
  </defs>
  <g id="Calque_1-2" data-name="Calque 1">
    <path class="cls-1" d="M15.04.32c-.43-.43-1.12-.43-1.55,0,0,0,0,0,0,0l-5.02,5.02c-.43.43-1.12.43-1.55,0,0,0,0,0,0,0L1.88.32c-.43-.43-1.12-.43-1.55,0,0,0,0,0,0,0C-.11.75-.11,1.44.32,1.87l5.03,5.03c1.28,1.28,3.37,1.28,4.65,0L15.04,1.87c.43-.43.43-1.12,0-1.55Z"/>
  </g>
</svg>