<?xml version="1.0" encoding="UTF-8"?>
<svg id="Calque_2" data-name="Calque 2" xmlns="http://www.w3.org/2000/svg" viewBox="0 0 39.31 39.31">
  <defs>
    <style>
      .cls-1 {
        fill: none;
        stroke: #b3b3b3;
        stroke-miterlimit: 10;
      }

      .cls-2 {
        fill: #b3b3b3;
      }
    </style>
  </defs>
  <g id="Calque_1-2" data-name="Calque 1">
    <g>
      <path class="cls-2" d="M21.72,12.3l-5.03,5.03c-1.28,1.28-1.28,3.37,0,4.65l5.03,5.03c.43.43,1.12.43,1.55,0,0,0,0,0,0,0,.43-.43.42-1.12,0-1.55l-5.02-5.02s0,0,0,0c-.43-.43-.42-1.12,0-1.55l5.02-5.02s0,0,0,0c.43-.43.42-1.12,0-1.55-.43-.43-1.12-.43-1.55,0Z"/>
      <rect class="cls-1" x=".5" y=".5" width="38.31" height="38.31" rx="10" ry="10" transform="translate(39.31 39.31) rotate(-180)"/>
    </g>
  </g>
</svg>