<?xml version="1.0" encoding="UTF-8"?>
<svg id="Calque_2" data-name="Calque 2" xmlns="http://www.w3.org/2000/svg" viewBox="0 0 27.39 30.83">
  <defs>
    <style>
      .cls-1 {
        fill: #e5373f;
      }
    </style>
  </defs>
  <g id="Calque_1-2" data-name="Calque 1">
    <g>
      <path class="cls-1" d="M10.68,8.73c.07,1.04,1.26,1.61,2.13,1.02.76-.52,1.79.02,1.79.94v3.79h2.84c-.5-2.06,1.13-4.06,3.3-3.91,1.91.13,3.33,1.97,2.85,3.91h2.87c2.4-3.63-.02-8.87-4.69-9.11C22.28,2.58,20.13,0,17.31,0c-1.02,0-1.96.34-2.72.91v5.65c0,.92-1.03,1.46-1.79.94-.92-.63-2.21.07-2.13,1.22Z"/>
      <path class="cls-1" d="M4.82,14.48c.92,0,1.46,1.03.94,1.79-.63.92.06,2.2,1.22,2.12,1.05-.07,1.61-1.27,1.02-2.12-.52-.76.02-1.79.94-1.79h3.85v-2.78c-1.95.48-3.78-.94-3.91-2.85-.15-2.16,1.85-3.8,3.91-3.3V.91c-3.24-2.44-7.88.35-7.17,4.39C.92,5.56-1.46,10.82.96,14.48h3.86Z"/>
      <path class="cls-1" d="M26.42,16.29h-3.85c-.92,0-1.46-1.03-.94-1.79.59-.86.02-2.05-1.02-2.12-1.16-.08-1.85,1.21-1.22,2.12.52.76-.02,1.79-.94,1.79h-3.85v2.78c2.06-.5,4.06,1.13,3.91,3.3-.13,1.91-1.97,3.33-3.91,2.85v4.7c3.24,2.44,7.88-.35,7.17-4.39,4.59-.24,7.14-5.39,4.65-9.23h0Z"/>
      <path class="cls-1" d="M16.71,22.24c.08-1.15-1.2-1.85-2.13-1.22-.76.52-1.79-.02-1.79-.94v-3.79h-2.84c.49,2-1.03,3.92-3.08,3.92s-3.55-1.94-3.07-3.92H.96c-2.42,3.66-.04,8.93,4.67,9.17-.53,2.79,1.62,5.36,4.44,5.36,1.02,0,1.96-.34,2.72-.91v-5.71c0-.92,1.03-1.46,1.79-.94.86.59,2.05.02,2.13-1.02h0Z"/>
    </g>
  </g>
</svg>