<?xml version="1.0" encoding="UTF-8"?>
<svg id="Calque_2" data-name="Calque 2" xmlns="http://www.w3.org/2000/svg" viewBox="0 0 37.09 34">
  <defs>
    <style>
      .cls-1 {
        fill: #fff;
      }
    </style>
  </defs>
  <g id="Calque_1-2" data-name="Calque 1">
    <path class="cls-1" d="M11.34,21.17c-.33.33-.53.8-.52,1.3,0,.5.2.96.55,1.32l3.83,3.46c.32.29.34.77.06,1.09-.29.32-.78.34-1.09.06l-3.85-3.48c-.68-.67-1.03-1.52-1.04-2.43s.35-1.77,1-2.42l3.89-3.63c.31-.29.8-.27,1.09.04.29.31.28.8-.04,1.09l-3.87,3.61h0ZM37.09,6.95v20.09c0,3.83-3.12,6.95-6.95,6.95H6.95c-3.83,0-6.95-3.12-6.95-6.95V6.95C0,3.12,3.12,0,6.95,0h23.18c3.83,0,6.95,3.12,6.95,6.95ZM1.55,6.95v3.86h34v-3.86c0-2.98-2.43-5.41-5.41-5.41H6.95C3.97,1.55,1.55,3.97,1.55,6.95ZM35.54,27.04v-14.68H1.55v14.68c0,2.98,2.43,5.41,5.41,5.41h23.18c2.98,0,5.41-2.43,5.41-5.41ZM6.18,7.73c.85,0,1.55-.69,1.55-1.55s-.69-1.55-1.55-1.55-1.55.69-1.55,1.55.69,1.55,1.55,1.55ZM10.82,7.73c.85,0,1.55-.69,1.55-1.55s-.69-1.55-1.55-1.55-1.55.69-1.55,1.55.69,1.55,1.55,1.55ZM15.45,7.73c.85,0,1.55-.69,1.55-1.55s-.69-1.55-1.55-1.55-1.55.69-1.55,1.55.69,1.55,1.55,1.55ZM22.93,16.43c-.31-.29-.8-.27-1.09.04-.29.31-.28.8.04,1.09l3.85,3.59c.35.35.55.82.54,1.32,0,.5-.2.96-.53,1.29l-3.85,3.48c-.32.29-.34.77-.06,1.09.29.32.77.34,1.09.06l3.88-3.51c.65-.64,1.01-1.5,1.01-2.41s-.35-1.77-1.02-2.43l-3.87-3.61h0Z"/>
  </g>
</svg>