<?xml version="1.0" encoding="UTF-8"?>
<svg id="Calque_2" data-name="Calque 2" xmlns="http://www.w3.org/2000/svg" viewBox="0 0 131.64 46.22">
  <defs>
    <style>
      .cls-1 {
        fill: #b3b3b3;
      }
    </style>
  </defs>
  <g id="Calque_1-2" data-name="Calque 1">
    <g>
      <g>
        <path class="cls-1" d="M65.67,41.36v2.02h-10.13v-12.99h9.86v2.02h-7.35v3.38h6.52v1.98h-6.52v3.58h7.62Z"/>
        <path class="cls-1" d="M82.67,44.68c-.89,1-2.1,1.54-3.53,1.54-1.83,0-3.2-.69-5.19-2.69-3.78-.32-6.5-3.04-6.5-6.64,0-3.84,3.09-6.68,7.27-6.68s7.27,2.82,7.27,6.68c0,3.14-2.04,5.58-5.05,6.4.77.8,1.47,1.09,2.26,1.09.89,0,1.66-.35,2.31-1.04l1.16,1.34ZM74.72,41.46c2.72,0,4.75-1.91,4.75-4.56s-2.03-4.56-4.75-4.56-4.75,1.91-4.75,4.56,2.03,4.56,4.75,4.56Z"/>
        <path class="cls-1" d="M84.65,30.4h5.9c4.38,0,7.37,2.6,7.37,6.49s-2.99,6.49-7.37,6.49h-5.9v-12.99ZM90.44,41.34c3.01,0,4.96-1.76,4.96-4.45s-1.95-4.45-4.96-4.45h-3.28v8.9h3.28Z"/>
        <path class="cls-1" d="M99.62,36.89c0-3.84,3.09-6.68,7.27-6.68s7.27,2.82,7.27,6.68-3.09,6.68-7.27,6.68-7.27-2.84-7.27-6.68ZM111.64,36.89c0-2.65-2.03-4.56-4.75-4.56s-4.75,1.91-4.75,4.56,2.03,4.56,4.75,4.56,4.75-1.91,4.75-4.56Z"/>
        <path class="cls-1" d="M129.23,43.39l-.02-8.61-4.44,7.12h-1.12l-4.44-7.01v8.5h-2.39v-12.99h2.06l5.36,8.61,5.27-8.61h2.06l.02,12.99h-2.37Z"/>
      </g>
      <g>
        <rect class="cls-1" x="129.12" width="2.52" height="19.35"/>
        <polygon class="cls-1" points="120.15 0 117.64 0 113.07 6.49 113.07 9.01 119.84 9.01 119.84 6.49 115.59 6.49 120.15 0"/>
        <path class="cls-1" d="M119.85,6.49v2.51c2.05,0,3.72,1.66,3.72,3.72s-1.66,3.72-3.72,3.72v2.51c3.44,0,6.23-2.79,6.23-6.23s-2.79-6.23-6.23-6.23Z"/>
        <path class="cls-1" d="M81.16,6.47c-3.47,0-6.28,2.81-6.28,6.28s2.81,6.28,6.28,6.28c1.3,0,2.51-.4,3.51-1.08-.72,2.39-2.19,4.45-4.14,5.91l1.77,1.77c3.25-2.56,5.34-6.53,5.34-10.99,0-.91-.09-1.81-.26-2.67-.38-3.1-3.02-5.5-6.23-5.5ZM81.16,16.49c-2.07,0-3.74-1.68-3.74-3.74s1.68-3.74,3.74-3.74,3.74,1.68,3.74,3.74-1.68,3.74-3.74,3.74Z"/>
        <path class="cls-1" d="M65.85,6.49c-.54,0-1.07.07-1.57.2-5.21,1.15-9.12,5.8-9.12,11.36,0,2.73.94,5.23,2.51,7.22h3.8c-2.21-1.63-3.66-4.25-3.66-7.22,0-2.01.66-3.86,1.78-5.35,0,.02,0,.03,0,.05,0,3.45,2.8,6.25,6.25,6.25s6.25-2.8,6.25-6.25-2.8-6.25-6.25-6.25ZM65.85,16.33c-1.98,0-3.59-1.61-3.59-3.59,0-1.68,1.16-3.09,2.73-3.48.07-.01.14-.03.2-.04h0c.21-.04.43-.07.66-.07,1.98,0,3.59,1.61,3.59,3.59s-1.61,3.59-3.59,3.59Z"/>
        <path class="cls-1" d="M104.8,16.05c0-5.42-4.39-9.82-9.82-9.82-1.05,0-2.06.17-3,.47v2.85c.91-.42,1.93-.67,3-.67,3.96,0,7.16,3.21,7.16,7.16,0,.13,0,.26-.01.39h-11.47v2.52h29.18v-2.52h-15.05c0-.13.01-.26.01-.39Z"/>
        <path class="cls-1" d="M128.58,23.17c0-.94.36-1.4,1.07-1.4.55,0,.86.31.99.91l1.01-.13c-.23-1.09-.91-1.64-2.03-1.64-.7,0-1.25.23-1.64.68-.31.39-.47.94-.47,1.59,0,.34.05.65.16.91h-1.01v1.04h4.99v-1.04h-2.81c-.18-.23-.26-.55-.26-.91Z"/>
      </g>
      <path class="cls-1" d="M41.29.29H2.35C1.05.29,0,1.34,0,2.64v38.94c0,1.3,1.05,2.35,2.35,2.35h38.94c1.3,0,2.35-1.05,2.35-2.35V2.64c0-1.3-1.05-2.35-2.35-2.35ZM30.48,15.75h-8.87c-3.51,0-6.36,2.85-6.36,6.36s2.85,6.36,6.36,6.36h8.87v4.18h-8.87c-5.81,0-10.54-4.73-10.54-10.54s4.73-10.54,10.54-10.54h8.87v4.18ZM27.26,20.17v4.15h-8.46v-4.15h8.46Z"/>
    </g>
  </g>
</svg>