<?xml version="1.0" encoding="UTF-8"?>
<svg id="Calque_2" data-name="Calque 2" xmlns="http://www.w3.org/2000/svg" viewBox="0 0 35.9 35.9">
  <defs>
    <style>
      .cls-1 {
        fill: #fff;
      }
    </style>
  </defs>
  <g id="Calque_1-2" data-name="Calque 1">
    <g>
      <path class="cls-1" d="M4.21,15.85c0-.58-.47-1.05-1.05-1.05H1.05c-.58,0-1.05.47-1.05,1.05s.47,1.05,1.05,1.05h2.1c.58,0,1.05-.47,1.05-1.05Z"/>
      <path class="cls-1" d="M34.85,14.79h-2.1c-.58,0-1.05.47-1.05,1.05s.47,1.05,1.05,1.05h2.1c.58,0,1.05-.47,1.05-1.05s-.47-1.05-1.05-1.05Z"/>
      <path class="cls-1" d="M5.72,7.57l-1.82-1.05c-.5-.29-1.15-.12-1.44.39s-.12,1.15.39,1.44l1.82,1.05c.5.29,1.14.12,1.44-.39.29-.5.12-1.15-.39-1.44Z"/>
      <path class="cls-1" d="M33.05,23.35l-1.82-1.05c-.5-.29-1.15-.12-1.44.39-.29.5-.12,1.15.39,1.44l1.82,1.05c.5.29,1.14.12,1.44-.39.29-.5.12-1.15-.39-1.44Z"/>
      <path class="cls-1" d="M9.68,3.4c.29.51.94.67,1.44.39.5-.29.68-.93.39-1.44l-1.05-1.82c-.29-.5-.94-.67-1.44-.39-.5.29-.68.93-.39,1.44l1.05,1.82Z"/>
      <path class="cls-1" d="M4.67,22.3l-1.82,1.05c-.5.29-.68.93-.39,1.44.29.51.94.67,1.44.39l1.82-1.05c.5-.29.68-.93.39-1.44-.29-.5-.94-.67-1.44-.39Z"/>
      <path class="cls-1" d="M31.23,9.4l1.82-1.05c.5-.29.68-.93.39-1.44-.29-.5-.94-.68-1.44-.39l-1.82,1.05c-.5.29-.68.93-.39,1.44.29.51.94.67,1.44.39Z"/>
      <path class="cls-1" d="M24.79,3.78c.5.29,1.14.12,1.44-.39l1.05-1.82c.29-.5.12-1.15-.39-1.44-.5-.29-1.15-.12-1.44.39l-1.05,1.82c-.29.5-.12,1.15.39,1.44Z"/>
      <path class="cls-1" d="M25.24,6.87c-2.72-2.21-6.28-3.06-9.77-2.33-4.54.95-8.12,4.67-8.91,9.26-.66,3.85.61,7.74,3.39,10.41,1.48,1.42,2.38,3.32,2.63,5.31h4.32v-4.94l-3.97-5.96-2.03-2.03c-.41-.41-.41-1.08,0-1.49s1.08-.41,1.49,0l1.36,1.36,1.36-1.36c.41-.41,1.08-.41,1.49,0l1.36,1.36,1.36-1.36c.41-.41,1.08-.41,1.49,0l1.36,1.36,1.36-1.36c.41-.41,1.08-.41,1.49,0s.41,1.08,0,1.49l-2.03,2.03-3.97,5.96v4.94h4.26c.12-1.89,1.02-3.74,2.62-5.25,2.31-2.18,3.64-5.25,3.64-8.43,0-3.5-1.56-6.77-4.28-8.98Z"/>
      <path class="cls-1" d="M20.05,17.33l-1.36,1.36c-.41.41-1.08.41-1.49,0l-1.36-1.36-.75.75,2.85,4.28,2.85-4.28-.75-.75Z"/>
      <path class="cls-1" d="M12.69,32.74c0,1.74,1.42,3.16,3.16,3.16h4.21c1.74,0,3.16-1.42,3.16-3.16v-1.12h-10.52v1.12Z"/>
    </g>
  </g>
</svg>