<?xml version="1.0" encoding="UTF-8"?>
<svg id="Calque_2" data-name="Calque 2" xmlns="http://www.w3.org/2000/svg" viewBox="0 0 21.62 21.62">
  <defs>
    <style>
      .cls-1 {
        fill: #fff;
      }
    </style>
  </defs>
  <g id="Calque_1-2" data-name="Calque 1">
    <g>
      <path class="cls-1" d="M16.2,0H5.4C2.43.01,0,2.45,0,5.42v10.81c.01,2.97,2.45,5.4,5.42,5.4h10.81c2.97-.01,5.4-2.45,5.4-5.42V5.4C21.61,2.43,19.18,0,16.2,0ZM19.82,16.21c0,1.99-1.61,3.6-3.6,3.61H5.42c-1.99.01-3.6-1.6-3.61-3.59V5.42c-.01-1.99,1.6-3.6,3.59-3.61h10.81c1.99-.01,3.6,1.6,3.61,3.59v10.81s.01,0,.01,0Z"/>
      <circle class="cls-1" cx="16.66" cy="4.95" r="1.35"/>
      <path class="cls-1" d="M10.81,5.41c-2.98,0-5.4,2.42-5.4,5.41s2.42,5.4,5.41,5.4c2.98,0,5.4-2.43,5.4-5.41,0-2.98-2.42-5.4-5.41-5.4ZM10.82,14.41c-1.99,0-3.6-1.61-3.61-3.6,0-1.99,1.61-3.6,3.6-3.61,1.99,0,3.6,1.61,3.61,3.6,0,1.99-1.61,3.6-3.6,3.61Z"/>
    </g>
  </g>
</svg>