<?xml version="1.0" encoding="UTF-8"?>
<svg id="Calque_2" data-name="Calque 2" xmlns="http://www.w3.org/2000/svg" viewBox="0 0 12.32 15.71">
  <defs>
    <style>
      .cls-1 {
        fill: #fff;
      }
    </style>
  </defs>
  <g id="Calque_1-2" data-name="Calque 1">
    <g id="Pin-2">
      <g>
        <path class="cls-1" d="M11.62,3.31C10.69,1.47,8.89.24,6.84.03c-.46-.05-.92-.04-1.37,0C3.42.24,1.62,1.48.69,3.32c-1.18,2.36-.82,5.19.9,7.19l4.11,4.99c.21.26.59.29.85.08.03-.02.06-.05.08-.08l4.1-5c1.72-2,2.07-4.83.89-7.19h0ZM9.8,9.73l-3.63,4.43-3.64-4.42c-1.4-1.63-1.7-3.93-.77-5.86.74-1.48,2.19-2.47,3.83-2.65.19-.02.37-.03.56-.03.19,0,.38,0,.56.03,1.65.17,3.09,1.16,3.84,2.64.93,1.93.64,4.23-.75,5.86h0Z"/>
        <path class="cls-1" d="M6.16,3.02c-1.67,0-3.02,1.36-3.02,3.03s1.36,3.02,3.03,3.02c1.67,0,3.02-1.36,3.02-3.03,0-1.67-1.36-3.02-3.03-3.02ZM6.16,7.86c-1,0-1.81-.81-1.82-1.81s.81-1.81,1.81-1.82,1.81.81,1.82,1.81c0,1-.81,1.81-1.81,1.82Z"/>
      </g>
    </g>
  </g>
</svg>