<?xml version="1.0" encoding="UTF-8"?>
<svg id="Calque_2" data-name="Calque 2" xmlns="http://www.w3.org/2000/svg" viewBox="0 0 121.03 45.53">
  <defs>
    <style>
      .cls-1 {
        fill: #69c1bd;
      }

      .cls-2 {
        fill: #fff;
      }

      .cls-3 {
        fill: #e5373f;
      }
    </style>
  </defs>
  <g id="Calque_1-2" data-name="Calque 1">
    <g>
      <g>
        <path class="cls-2" d="M48.34,37.27c.27,0,.51.03.7.1.19.07.34.13.45.2.11.07.17.12.19.14l-.23.35s-.1-.08-.2-.14c-.09-.06-.21-.12-.36-.17-.15-.05-.32-.08-.52-.08-.32,0-.57.07-.76.2-.18.14-.28.32-.28.56,0,.16.05.3.15.43.1.12.23.23.4.33s.36.2.57.29c.17.08.33.16.5.25.17.09.32.2.46.33.14.13.25.27.34.44.09.17.13.36.13.57,0,.2-.04.38-.12.54-.08.16-.19.3-.34.42-.15.12-.32.21-.52.27-.2.06-.42.1-.66.1-.28,0-.54-.04-.77-.11-.23-.07-.42-.15-.56-.23-.14-.08-.22-.13-.24-.14l.25-.37s.08.06.16.11c.08.05.17.1.29.15.11.05.25.1.4.13.15.04.31.05.49.05.38,0,.67-.09.87-.27.2-.18.3-.41.3-.68,0-.21-.06-.39-.19-.55-.13-.15-.29-.28-.49-.4-.2-.12-.41-.22-.62-.33-.23-.11-.44-.22-.62-.35-.19-.12-.34-.27-.45-.43-.11-.16-.17-.36-.17-.59s.06-.42.19-.59c.13-.17.3-.31.52-.41.22-.1.46-.15.73-.15Z"/>
        <path class="cls-2" d="M54.87,37.36v4.95h-.42v-3.88l.03-.42-.11.44-1.36,3.63h-.42l-1.36-3.63-.1-.44.03.42v3.88h-.42v-4.95h.52l1.51,4.16.04.19.04-.19,1.51-4.16h.51Z"/>
        <path class="cls-2" d="M57.44,37.36h.46l1.77,4.95h-.44l-.46-1.28h-2.18l-.46,1.28h-.45l1.78-4.95ZM56.7,40.63h1.93l-.96-2.75h-.01l-.96,2.75Z"/>
        <path class="cls-2" d="M60.27,37.36h1.59c.26,0,.49.05.71.16.22.11.39.27.52.47.13.21.2.46.2.77s-.06.55-.19.76c-.13.2-.28.35-.45.45-.18.1-.34.15-.49.16l1.23,2.18h-.48l-1.18-2.15h-1.04v2.15h-.42v-4.95ZM60.68,39.82h1.03c.34,0,.61-.08.82-.26.21-.17.32-.44.32-.8s-.1-.63-.31-.79c-.21-.16-.48-.25-.82-.25h-1.03v2.09Z"/>
        <path class="cls-2" d="M65.21,37.75h-1.41v-.39h3.23v.39h-1.41v4.56h-.42v-4.56Z"/>
        <path class="cls-2" d="M69.57,37.36h1.02c.53,0,.96.11,1.29.32.34.21.59.5.75.88.16.37.24.8.24,1.28s-.08.91-.24,1.28c-.16.37-.41.67-.74.88-.34.21-.77.32-1.3.32h-1.02v-4.95ZM69.99,37.75v4.16h.57c.44,0,.8-.09,1.07-.27s.48-.42.61-.73c.13-.31.2-.67.2-1.07,0-.41-.06-.76-.19-1.08-.13-.31-.33-.56-.61-.74-.28-.18-.64-.27-1.08-.27h-.57Z"/>
        <path class="cls-2" d="M73.82,37.36h.42v4.95h-.42v-4.95Z"/>
        <path class="cls-2" d="M77.42,39.66h2.48v.25c0,.34-.06.66-.18.96-.12.3-.29.57-.51.8-.22.23-.47.41-.76.54-.29.13-.61.2-.95.2s-.67-.07-.96-.2c-.29-.14-.55-.32-.77-.56-.22-.24-.39-.51-.51-.82-.12-.31-.18-.64-.18-.99s.06-.68.18-.98c.12-.31.29-.58.51-.82.22-.24.47-.42.77-.56.29-.13.62-.2.96-.2.21,0,.41.02.6.07.19.05.36.12.52.2.16.09.3.19.44.31s.24.25.34.38l-.36.22c-.17-.23-.39-.42-.65-.56-.26-.14-.56-.21-.89-.21-.29,0-.55.06-.79.17-.24.11-.45.27-.63.47-.18.2-.32.43-.41.69-.1.26-.15.54-.15.83s.05.57.15.83c.1.26.23.49.41.69.18.2.39.36.63.47.24.11.51.17.79.17s.53-.05.76-.15c.23-.1.44-.24.61-.43.17-.18.31-.39.41-.63.1-.24.16-.49.17-.76h-2.03v-.36Z"/>
        <path class="cls-2" d="M80.76,37.36h.42v4.95h-.42v-4.95Z"/>
        <path class="cls-2" d="M83.32,37.75h-1.41v-.39h3.23v.39h-1.41v4.56h-.42v-4.56Z"/>
        <path class="cls-2" d="M86.75,37.36h.46l1.77,4.95h-.44l-.46-1.28h-2.18l-.46,1.28h-.45l1.78-4.95ZM86.02,40.63h1.93l-.96-2.75h-.01l-.96,2.75Z"/>
        <path class="cls-2" d="M89.56,37.36h.42v4.56h2.01v.39h-2.43v-4.95Z"/>
        <path class="cls-2" d="M96.15,37.36h.46l1.77,4.95h-.44l-.46-1.28h-2.18l-.46,1.28h-.45l1.78-4.95ZM95.42,40.63h1.93l-.96-2.75h-.01l-.96,2.75Z"/>
        <path class="cls-2" d="M100.98,39.66h2.48v.25c0,.34-.06.66-.18.96-.12.3-.29.57-.51.8-.22.23-.47.41-.76.54-.29.13-.61.2-.95.2s-.67-.07-.96-.2c-.29-.14-.55-.32-.77-.56-.22-.24-.39-.51-.51-.82-.12-.31-.18-.64-.18-.99s.06-.68.18-.98c.12-.31.29-.58.51-.82.22-.24.47-.42.77-.56.29-.13.62-.2.96-.2.21,0,.41.02.6.07.19.05.36.12.52.2.16.09.3.19.44.31s.24.25.34.38l-.36.22c-.17-.23-.39-.42-.65-.56-.26-.14-.56-.21-.89-.21-.29,0-.55.06-.79.17-.24.11-.45.27-.63.47-.18.2-.32.43-.41.69-.1.26-.15.54-.15.83s.05.57.15.83c.1.26.23.49.41.69.18.2.39.36.63.47.24.11.51.17.79.17s.53-.05.76-.15c.23-.1.44-.24.61-.43.17-.18.31-.39.41-.63.1-.24.16-.49.17-.76h-2.03v-.36Z"/>
        <path class="cls-2" d="M104.25,37.36h2.81v.39h-2.4v1.88h2.34v.39h-2.34v1.89h2.4v.39h-2.81v-4.95Z"/>
        <path class="cls-2" d="M108.54,37.77h.02v4.54h-.42v-4.95h.62l2.82,4.54h-.02s0-4.54,0-4.54h.42v4.95h-.62l-2.82-4.54Z"/>
        <path class="cls-2" d="M115.36,41.99c.34,0,.64-.05.88-.14.24-.09.41-.18.51-.27l.18.36c-.11.1-.3.2-.57.3-.28.1-.61.15-1,.15-.36,0-.7-.07-1.01-.2-.31-.13-.58-.31-.81-.55-.23-.23-.41-.51-.53-.81-.13-.31-.19-.64-.19-1s.06-.69.19-1c.13-.31.3-.58.53-.82.23-.24.5-.42.81-.55.31-.13.65-.2,1.01-.2.39,0,.72.05,1,.15.28.1.47.2.57.3l-.18.36c-.1-.09-.27-.18-.51-.27-.24-.09-.53-.14-.88-.14-.29,0-.56.05-.81.16-.25.1-.47.25-.67.44-.19.19-.34.42-.45.68-.11.26-.16.55-.16.87s.05.61.16.88c.11.27.26.49.45.68.19.19.41.34.67.44.25.1.52.16.81.16Z"/>
        <path class="cls-2" d="M118.98,40.53l-1.64-3.17h.5l1.35,2.67,1.34-2.67h.5l-1.63,3.17v1.78h-.42v-1.78Z"/>
      </g>
      <g>
        <path d="M4.28,3.13c-.63,0-1.15.51-1.15,1.15v38.12h38.12c.63,0,1.15-.51,1.15-1.15V3.13H4.28ZM21.48,33.24l-6.48-16.88-6.66,16.87H3.95L13.69,9.51h2.64l9.53,23.72-4.38.02ZM32.64,33.23h-4.01V13.5h-7.09v-4.01h11.1v23.74ZM41.44,13.5h-7v-4.01h7v4.01Z"/>
        <path class="cls-1" d="M42.4,0v3.13H4.28c-.63,0-1.15.51-1.15,1.15v38.12H0V1.77C0,.79.79,0,1.77,0h40.63Z"/>
      </g>
      <path class="cls-3" d="M45.53,3.13v40.63c0,.98-.79,1.77-1.77,1.77H3.13v-3.13h38.12c.63,0,1.15-.51,1.15-1.15V3.13h3.13Z"/>
      <circle class="cls-1" cx="118.48" cy="30.39" r="2.55"/>
      <polygon class="cls-2" points="25.86 33.23 21.48 33.24 14.99 16.36 8.33 33.23 3.95 33.23 13.69 9.51 16.33 9.51 25.86 33.23"/>
      <rect class="cls-2" x="46.68" y="9.49" width="4.01" height="23.74"/>
      <path class="cls-2" d="M71.83,33.23h-4.75l-8.15-12.74h3.66c.69,0,1.33-.27,1.81-.75l.46-.46c.67-.67,1.05-1.57,1.05-2.52,0-1.13-.6-1.99-1.1-2.51-.46-.47-1.38-.75-2.46-.75h-5.38v19.73h-4.01V9.49h9.39c2.32,0,4.07.62,5.36,1.91,1.43,1.43,2.22,3.33,2.22,5.36s-.79,3.93-2.22,5.36l-.46.46c-.45.45-.95.82-1.5,1.12l6.09,9.53Z"/>
      <polygon class="cls-2" points="32.64 9.49 32.64 33.23 28.63 33.23 28.63 13.5 21.54 13.5 21.54 9.49 32.64 9.49"/>
      <rect class="cls-3" x="34.43" y="9.49" width="7" height="4.01"/>
      <path class="cls-2" d="M105.58,9.96c-5.98,0-10.85,5.22-10.85,11.64s4.87,11.64,10.85,11.64,10.85-5.22,10.85-11.64-4.87-11.64-10.85-11.64ZM105.58,29.51c-3.92,0-7.12-3.55-7.12-7.91s3.19-7.91,7.12-7.91,7.12,3.55,7.12,7.91-3.19,7.91-7.12,7.91Z"/>
      <polygon class="cls-2" points="95.52 33.23 91.14 33.24 84.65 16.36 77.99 33.23 73.61 33.23 83.35 9.51 85.99 9.51 95.52 33.23"/>
    </g>
  </g>
</svg>