<?xml version="1.0" encoding="UTF-8"?>
<svg id="Calque_2" data-name="Calque 2" xmlns="http://www.w3.org/2000/svg" viewBox="0 0 13.86 9.75">
  <defs>
    <style>
      .cls-1 {
        fill: #fff;
      }
    </style>
  </defs>
  <g id="Calque_1-2" data-name="Calque 1">
    <path class="cls-1" d="M12.63,0H1.22C.54.01,0,.56,0,1.23v7.3c0,.67.56,1.22,1.23,1.22h11.42c.67-.01,1.22-.55,1.22-1.23V1.22C13.85.55,13.31,0,12.63,0ZM12.46.81c-.25.25-4.52,4.51-4.67,4.66-.23.23-.54.36-.86.36s-.63-.13-.86-.36c-.1-.1-4.34-4.3-4.68-4.65h11.07ZM.82,8.37V1.4s3.5,3.48,3.5,3.48l-3.5,3.49ZM1.4,8.94l3.5-3.49.6.59c.38.38.89.59,1.44.59s1.05-.21,1.43-.59l.6-.59,3.51,3.48H1.4ZM13.05,8.36l-3.51-3.48,3.5-3.49v6.97Z"/>
  </g>
</svg>