<?xml version="1.0" encoding="UTF-8"?>
<svg id="Calque_2" data-name="Calque 2" xmlns="http://www.w3.org/2000/svg" viewBox="0 0 138.96 35.64">
  <defs>
    <style>
      .cls-1 {
        fill: #b3b3b3;
      }
    </style>
  </defs>
  <g id="Calque_1-2" data-name="Calque 1">
    <g id="Marjane">
      <path class="cls-1" d="M44.54,26.5h-.09c-1.27,1.94-2.79,2.79-5.17,2.79-4.32,0-8.22-3.55-8.22-9.4s3.73-9.4,8.22-9.4c2.2,0,3.9.85,5.08,2.46h.09v-2.03h6.01v17.87h-5.93v-2.28h0ZM44.37,19.9c0-2.46-1.61-4.06-3.73-4.06s-3.73,1.61-3.73,4.06,1.61,4.06,3.73,4.06,3.73-1.7,3.73-4.06"/>
      <path class="cls-1" d="M54.02,10.92h5.93v3.22h.17c1.1-2.12,2.88-3.22,5.5-3.22v5.76c-3.55,0-5.5,1.18-5.5,5.5v6.69h-6.01V10.92h-.09Z"/>
      <path class="cls-1" d="M90.94,26.5h-.09c-1.27,1.94-2.79,2.79-5.17,2.79-4.32,0-8.22-3.55-8.22-9.4s3.73-9.4,8.22-9.4c2.2,0,3.9.85,5.08,2.46h.09v-2.03h6.01v17.87h-5.93v-2.28h0ZM90.86,19.9c0-2.46-1.61-4.06-3.73-4.06s-3.73,1.61-3.73,4.06,1.61,4.06,3.73,4.06,3.73-1.7,3.73-4.06"/>
      <path class="cls-1" d="M100.51,10.92h5.93v2.03h.17c1.1-1.7,2.71-2.46,5.25-2.46,4.32,0,6.86,2.79,6.86,7.2v11.18h-6.1v-8.9c0-2.29-.85-4.15-3.05-4.15-2.03,0-3.14,1.61-3.14,4.49v8.55h-6.01V10.92h.09Z"/>
      <path class="cls-1" d="M127.18,21.08c.42,2.12,1.7,3.22,3.47,3.22,1.44,0,2.62-.85,3.14-2.12l4.74,1.78c-.76,2.71-3.64,5.42-8.04,5.42-5.67,0-9.22-3.64-9.22-9.48,0-5.42,3.55-9.4,9.06-9.4s8.63,4.06,8.63,8.98c0,.5,0,1.18-.17,1.61h-11.61ZM127.18,17.95h5.76c-.09-1.52-1.18-2.71-2.79-2.71-1.45,0-2.54,1.02-2.97,2.71"/>
      <path class="cls-1" d="M68.5,6.43c0-1.7,1.35-3.14,3.14-3.14s3.14,1.44,3.14,3.14-1.35,3.14-3.14,3.14-3.14-1.36-3.14-3.14"/>
      <path class="cls-1" d="M68.58,28.95c0,1.27,0,2.71-2.12,2.71h-.76v3.98h1.44c6.6,0,7.45-2.79,7.45-6.86V11.01h-6.01v17.95Z"/>
      <path class="cls-1" d="M20.92,6.69c0,3.73-2.96,6.69-6.69,6.69s-6.69-2.96-6.69-6.69S10.51,0,14.23,0s6.69,2.96,6.69,6.69"/>
      <path class="cls-1" d="M22.61,10.5c-1.44,3.22-4.66,5.42-8.39,5.42s-6.69-2.03-8.22-4.99H0v17.95h6.1v-9.06c0-1.35,1.1-2.54,2.54-2.54s2.54,1.1,2.54,2.54v9.06h6.26v-9.06c0-1.35,1.1-2.54,2.54-2.54,1.35,0,2.54,1.1,2.54,2.54v9.06h6.1v-11.26c-.15-3.98-2.26-6.78-5.99-7.11"/>
    </g>
  </g>
</svg>