<?xml version="1.0" encoding="UTF-8"?>
<svg id="Calque_2" data-name="Calque 2" xmlns="http://www.w3.org/2000/svg" viewBox="0 0 139.4 51.11">
  <defs>
    <style>
      .cls-1 {
        fill: #b3b3b3;
      }
    </style>
  </defs>
  <g id="Calque_1-2" data-name="Calque 1">
    <g>
      <path class="cls-1" d="M77.34,42.22c0-.99.79-1.19,1.19-1.19s1.19.2,1.19,1.19v.4c.4-.99,1.38-1.77,2.96-1.77,1.38,0,2.37.79,2.96,1.77.59-1.19,1.77-1.77,3.16-1.77,2.37,0,3.55,1.97,3.55,3.75v4.74c0,1.19-.79,1.38-1.19,1.38s-1.19-.2-1.19-1.38v-4.14c0-1.19-.2-2.56-1.77-2.56-1.38,0-2.17,1.38-2.17,2.56v3.95c0,1.19-.79,1.38-1.19,1.38s-1.19-.2-1.19-1.38v-4.54c0-1.19-.59-1.97-1.77-1.97-1.38,0-1.97,1.38-1.97,2.56v3.95c0,1.19-.79,1.38-1.19,1.38s-1.19-.2-1.19-1.38v-6.91h-.2Z"/>
      <path class="cls-1" d="M101.8,50.9c-.4,0-1.19-.2-1.19-1.19v-.2c-1.38,2.17-6.51,1.97-6.51-1.58,0-2.76,3.55-3.16,6.51-3.16v-.2c0-1.19-.99-1.77-2.17-1.77-.79,0-1.38.4-1.97.79-1.19.79-2.17-.79-.99-1.58.79-.59,1.97-.99,3.16-.99,3.35,0,4.14,2.17,4.14,3.95v4.74c0,1-.59,1.19-.99,1.19ZM100.03,46.37c-1.58,0-3.55.2-3.55,1.58,0,.99.79,1.19,1.58,1.19,1.58,0,2.56-.99,2.56-2.37v-.4h-.59Z"/>
      <path class="cls-1" d="M106.74,50.9c-.4,0-1.19-.2-1.19-1.38v-7.1c0-.99.79-1.19,1.19-1.19s1.19.2,1.19,1.19v.4c.4-.99,1.38-1.77,2.37-1.77.79,0,1.19.4,1.19.99s-.4,1.19-1.19,1.19c-1.58,0-2.37,1.19-2.37,2.76v3.75c0,.99-.79,1.18-1.19,1.18Z"/>
      <path class="cls-1" d="M121.53,49.72c0,.59-.4,1.19-1.19,1.19-.4,0-.79-.2-1.19-.59l-3.94-4.34v3.75c0,1.19-.79,1.38-1.19,1.38s-1.19-.2-1.19-1.38v-12.63c0-1.19.79-1.38,1.19-1.38s1.19.2,1.19,1.38v8.29l3.75-3.75c1.38-1.38,2.96.4,1.57,1.58l-2.76,2.37,3.16,3.35c.59.2.59.59.59.79Z"/>
      <path class="cls-1" d="M124.89,46.76c.2,1.38,1.38,2.37,2.76,2.37.99,0,1.57-.4,2.17-.79.4-.2.59-.4.79-.4.99,0,1.19,1.19.59,1.77-.99.79-1.97,1.19-3.55,1.19-2.96,0-5.13-1.77-5.13-4.94,0-2.96,2.17-5.13,4.94-5.13,2.37,0,4.14,1.38,4.54,4.14v.4c0,.79-.4,1.19-1.19,1.19h-5.92v.2ZM129.63,44.99c0-3.35-4.54-2.76-4.74,0h4.74Z"/>
      <path class="cls-1" d="M137.52,50.9c-2.56,0-2.96-1.58-2.96-3.35v-4.34h-.79c-.99,0-.99-.59-.99-.99s.2-.99.99-.99h.79v-1.58c0-.99.79-1.19,1.19-1.19s1.19.2,1.19,1.19v1.58h1.38c.99,0,.99.59.99.99s-.2.99-.99.99h-1.38v4.34c0,.99.4,1.38.99,1.38h.59c.99,0,1.19,1.38.4,1.77-.41,0-.8.2-1.39.2Z"/>
      <path class="cls-1" d="M44.59,26.64c-1.38,1.97-2.96,2.76-5.32,2.76-4.34,0-8.29-3.55-8.29-9.47s3.75-9.48,8.29-9.48c2.17,0,3.95.79,5.13,2.56v-1.97h5.92v17.96h-5.72v-2.37h0ZM44.59,19.93c0-5.32-7.5-5.32-7.5,0,0,2.37,1.58,4.14,3.75,4.14s3.75-1.78,3.75-4.14Z"/>
      <path class="cls-1" d="M54.26,11.05h5.72v3.16h.2c.99-2.17,2.96-3.16,5.32-3.16v5.52c-3.55,0-5.52,1.19-5.52,5.52v6.71h-5.92l.2-17.75Z"/>
      <path class="cls-1" d="M91.35,26.64c-1.38,1.97-2.96,2.76-5.32,2.76-4.34,0-8.29-3.55-8.29-9.47s3.75-9.48,8.28-9.48c2.17,0,3.95.79,5.13,2.56v-1.97h5.92v17.96h-5.72v-2.37h0ZM91.16,19.93c0-5.32-7.5-5.32-7.5,0,0,2.37,1.58,4.14,3.75,4.14,2.17,0,3.75-1.78,3.75-4.14Z"/>
      <path class="cls-1" d="M100.82,11.05s.2,0,0,0h5.92v1.97h.2c.99-1.58,2.37-2.37,4.34-2.37,4.14-.4,7.7,3.16,7.7,7.3v11.05h-5.92v-8.88c0-2.37-.79-4.14-2.96-4.14-1.97,0-3.16,1.58-3.16,4.54v8.49h-5.92V11.05h-.21Z"/>
      <path class="cls-1" d="M127.85,21.11c-.19,0-.19.2,0,0,.4,2.17,1.57,3.16,3.35,3.16,1.38,0,2.56-.79,3.16-2.17l4.54,1.77c-.79,2.77-3.75,5.33-8.08,5.33-5.72,0-9.27-3.75-9.27-9.47s3.55-9.47,9.07-9.47,8.69,3.95,8.69,9.07c0,.59,0,1.19-.2,1.58h-11.25v.19h0ZM127.66,17.96h5.72c0-1.58-1.19-2.76-2.76-2.76-1.38.2-2.57,1.19-2.96,2.76Z"/>
      <path class="cls-1" d="M68.87,6.52c0-1.77,1.38-3.16,3.16-3.16s3.16,1.38,3.16,3.16-1.38,3.16-3.16,3.16c-1.78,0-3.16-1.38-3.16-3.16Z"/>
      <path class="cls-1" d="M68.86,29.01c0,1.19,0,2.76-2.17,2.76h-.79v3.95h1.57c6.51,0,7.5-2.76,7.5-6.91V11.05h-5.92v17.96h-.2Z"/>
      <path class="cls-1" d="M20.91,6.71c0,3.75-2.96,6.71-6.71,6.71s-6.71-2.96-6.71-6.71S10.66,0,14.21,0c3.75,0,6.71,2.97,6.71,6.71Z"/>
      <path class="cls-1" d="M22.69,10.46s0,.2,0,0c-1.58,3.35-4.74,5.52-8.49,5.52-3.55,0-6.71-1.97-8.29-4.94H0v17.96h5.92v-8.87c0-1.38.79-2.56,2.17-2.76,1.77-.2,2.96.99,2.96,2.56v9.07h6.12v-8.88c0-1.38.79-2.56,2.17-2.76,1.58-.2,2.96.99,2.96,2.56v9.07h5.92v-11.25c.4-4.14-1.76-6.91-5.51-7.3Z"/>
    </g>
  </g>
</svg>