<?xml version="1.0" encoding="UTF-8"?>
<svg id="Calque_2" data-name="Calque 2" xmlns="http://www.w3.org/2000/svg" viewBox="0 0 41.05 41.05">
  <defs>
    <style>
      .cls-1 {
        fill: #e5373f;
        stroke: #e5373f;
        stroke-miterlimit: 10;
        stroke-width: .25px;
      }
    </style>
  </defs>
  <g id="Calque_1-2" data-name="Calque 1">
    <path class="cls-1" d="M40.45,16.09c.32,1.45.48,2.94.48,4.44,0,11.25-9.15,20.4-20.4,20.4S.12,31.78.12,20.53,9.27.12,20.53.12c1.5,0,2.99.17,4.44.48.46.1.75.56.65,1.02-.1.46-.56.75-1.02.65-1.33-.29-2.7-.44-4.06-.44C10.21,1.83,1.83,10.21,1.83,20.53s8.38,18.7,18.7,18.7,18.7-8.38,18.7-18.7c0-1.38-.15-2.74-.44-4.06-.1-.46.19-.92.65-1.02.46-.1.92.19,1.02.65h0ZM22.91,8.86c.46.09.9-.2,1-.66.09-.46-.2-.9-.66-1-.88-.19-1.8-.27-2.72-.27-7.5,0-13.6,6.1-13.6,13.6s6.1,13.6,13.6,13.6,13.6-6.1,13.6-13.6c0-.92-.09-1.84-.27-2.72-.09-.46-.54-.75-1-.66-.46.1-.77.54-.66,1,.15.78.24,1.58.24,2.38,0,6.56-5.34,11.9-11.9,11.9s-11.9-5.34-11.9-11.9,5.34-11.9,11.9-11.9c.8,0,1.6.09,2.38.24ZM19.8,15.48c.46-.07.78-.49.71-.97s-.49-.8-.97-.71c-3.33.48-5.83,3.37-5.83,6.73,0,3.76,3.04,6.8,6.8,6.8,3.37,0,6.26-2.5,6.73-5.83.07-.46-.26-.9-.71-.97s-.9.26-.97.71c-.36,2.5-2.53,4.37-5.05,4.37-2.81,0-5.1-2.3-5.1-5.1,0-2.52,1.87-4.69,4.37-5.05l.02.02ZM27.33,12.52v-5.03c0-1.14.44-2.21,1.24-3.01L32.68.38c.24-.24.61-.32.92-.19.32.14.53.44.53.78v5.95h5.95c.34,0,.65.2.78.53s.05.68-.19.92l-4.1,4.1c-.8.8-1.87,1.24-3.01,1.24h-5.03l-7.4,7.4c-.17.17-.39.26-.6.26s-.44-.09-.6-.26c-.34-.34-.34-.87,0-1.21l7.4-7.4-.02.02ZM29.03,12.03h4.54c.68,0,1.33-.27,1.8-.75l2.65-2.65h-4.74c-.48,0-.85-.37-.85-.85V3.03l-2.65,2.65c-.48.48-.75,1.12-.75,1.8v4.54Z"/>
  </g>
</svg>