<?xml version="1.0" encoding="UTF-8"?>
<svg id="Calque_2" data-name="Calque 2" xmlns="http://www.w3.org/2000/svg" viewBox="0 0 36.36 33.34">
  <defs>
    <style>
      .cls-1 {
        fill: #fff;
      }
    </style>
  </defs>
  <g id="Calque_1-2" data-name="Calque 1">
    <path class="cls-1" d="M25,0c-.42,0-.76.34-.76.76,0,2.47-.86,5.3-7.58,5.3H5.3c-2.92,0-5.3,2.38-5.3,5.3v4.55c0,2.13,1.27,3.95,3.08,4.8,0,.02,0,.04.01.06l4.54,10.24c.63,1.42,2.04,2.33,3.59,2.33,1.32,0,2.55-.66,3.28-1.76.73-1.1.86-2.48.34-3.7l-2.82-6.66h4.65c6.4,0,7.58,1.79,7.58,5.3,0,.42.34.76.76.76s.76-.34.76-.76V.76c0-.42-.34-.76-.76-.76h0ZM1.52,15.91v-4.55c0-2.09,1.7-3.79,3.79-3.79h3.79v12.12h-3.79c-2.09,0-3.79-1.7-3.79-3.79ZM13.44,28.47c.32.76.25,1.59-.21,2.27-.45.69-1.19,1.08-2.01,1.08-.95,0-1.82-.56-2.2-1.43l-4.09-9.21c.13,0,.25.04.37.04h5.07l3.07,7.25ZM16.67,19.7h-6.06V7.58h6.06c3.6,0,6.11-.83,7.58-2.45v16.67c-1.56-1.66-4.22-2.1-7.58-2.1ZM32.59,22.74c-.3.3-.78.3-1.07,0s-.3-.78,0-1.07c4.43-4.43,4.43-11.64,0-16.07-.3-.3-.3-.78,0-1.07s.78-.3,1.07,0c5.02,5.02,5.02,13.19,0,18.21h0ZM31.82,13.64c0,2.23-.87,4.32-2.44,5.89-.3.3-.78.3-1.07,0s-.3-.78,0-1.07c1.29-1.29,2-3,2-4.82s-.71-3.53-2-4.82c-.3-.3-.3-.78,0-1.07s.78-.3,1.07,0c1.57,1.57,2.44,3.67,2.44,5.89Z"/>
  </g>
</svg>