<?xml version="1.0" encoding="UTF-8"?>
<svg id="Calque_2" data-name="Calque 2" xmlns="http://www.w3.org/2000/svg" viewBox="0 0 228.39 42.95">
  <defs>
    <style>
      .cls-1 {
        fill: #b3b3b3;
      }
    </style>
  </defs>
  <g id="Calque_1-2" data-name="Calque 1">
    <g>
      <g>
        <rect class="cls-1" x="50.28" y="18.23" width="5.51" height="5.51"/>
        <g>
          <path class="cls-1" d="M71.07,12.04l7.92,18.3h-3.54l-1.86-4.43h-8.58l-1.86,4.43h-3.4l7.92-18.3h3.4ZM66.23,22.99h6.12l-3.06-7.2-3.06,7.2Z"/>
          <path class="cls-1" d="M82.62,28.54c-1.41-1.39-2.12-3.36-2.12-5.92v-10.58h3.26v10.46c0,1.68.41,2.95,1.23,3.82.82.87,2.03,1.3,3.63,1.3s2.79-.43,3.62-1.3c.83-.87,1.24-2.14,1.24-3.82v-10.46h3.26v10.58c0,2.55-.71,4.53-2.12,5.92-1.41,1.39-3.41,2.09-6,2.09s-4.59-.7-6-2.09Z"/>
          <path class="cls-1" d="M99.32,15.04v-3h16.38v3h-6.55v15.3h-3.26v-15.3h-6.58Z"/>
          <path class="cls-1" d="M133.76,14.43c1.78,1.78,2.67,4.04,2.67,6.76s-.89,5-2.67,6.78-4.04,2.66-6.76,2.66-4.98-.89-6.76-2.66-2.67-4.03-2.67-6.78.89-4.98,2.67-6.76c1.78-1.78,4.04-2.67,6.76-2.67s4.98.89,6.76,2.67ZM131.4,25.85c1.12-1.18,1.69-2.74,1.69-4.66s-.56-3.48-1.69-4.67c-1.12-1.19-2.59-1.79-4.4-1.79s-3.28.6-4.4,1.79c-1.12,1.19-1.69,2.75-1.69,4.67s.56,3.48,1.69,4.66c1.12,1.18,2.59,1.77,4.4,1.77s3.28-.59,4.4-1.77Z"/>
          <path class="cls-1" d="M148.04,28.82l-4.49-11.86-1.29,13.38h-3.15l1.72-18.3h4.15l4.75,12.87,4.75-12.87h4.06l1.74,18.3h-3.32l-1.32-13.58-4.43,12.07h-3.17Z"/>
          <path class="cls-1" d="M179.14,14.43c1.78,1.78,2.67,4.04,2.67,6.76s-.89,5-2.67,6.78-4.04,2.66-6.76,2.66-4.98-.89-6.76-2.66-2.67-4.03-2.67-6.78.89-4.98,2.67-6.76c1.78-1.78,4.04-2.67,6.76-2.67s4.98.89,6.76,2.67ZM176.78,25.85c1.12-1.18,1.69-2.74,1.69-4.66s-.56-3.48-1.69-4.67c-1.12-1.19-2.59-1.79-4.4-1.79s-3.28.6-4.4,1.79c-1.12,1.19-1.69,2.75-1.69,4.67s.56,3.48,1.69,4.66c1.12,1.18,2.59,1.77,4.4,1.77s3.28-.59,4.4-1.77Z"/>
          <path class="cls-1" d="M183.67,15.04v-3h16.38v3h-6.55v15.3h-3.26v-15.3h-6.58Z"/>
          <path class="cls-1" d="M203.06,12.04h3.26v18.3h-3.26V12.04Z"/>
          <path class="cls-1" d="M217.04,30.34l-7.89-18.3h3.6l6.09,14.47,6.06-14.47h3.49l-7.89,18.3h-3.46Z"/>
        </g>
      </g>
      <g>
        <path class="cls-1" d="M1.07,41.88h40.81V1.07H1.07v40.81ZM42.95,42.95H0V0h42.95v42.95Z"/>
        <polygon class="cls-1" points="11.77 12.06 17.51 12.06 21.84 24.8 21.9 24.8 26 12.06 31.73 12.06 31.73 30.59 27.92 30.59 27.92 17.46 27.86 17.46 23.32 30.59 20.18 30.59 15.64 17.59 15.59 17.59 15.59 30.59 11.77 30.59 11.77 12.06"/>
      </g>
    </g>
  </g>
</svg>