<?xml version="1.0" encoding="UTF-8"?>
<svg id="Calque_2" data-name="Calque 2" xmlns="http://www.w3.org/2000/svg" viewBox="0 0 32.95 28.5">
  <defs>
    <style>
      .cls-1 {
        fill: #e5373f;
      }
    </style>
  </defs>
  <g id="Calque_1-2" data-name="Calque 1">
    <path class="cls-1" d="M16.48,28.5c-.17,0-.33-.04-.48-.13-.16-.09-4.02-2.33-7.92-5.7-2.32-2-4.17-3.98-5.5-5.89C.85,14.31-.01,11.93,0,9.71c.02-2.58.94-5.01,2.6-6.83,1.69-1.86,3.95-2.88,6.35-2.88,3.08,0,5.9,1.73,7.52,4.46,1.62-2.74,4.44-4.46,7.52-4.46,2.27,0,4.44.92,6.1,2.6,1.83,1.84,2.86,4.44,2.85,7.13-.01,2.21-.9,4.59-2.62,7.06-1.33,1.91-3.18,3.89-5.49,5.89-3.89,3.37-7.72,5.61-7.88,5.7-.15.09-.32.13-.49.13h0Z"/>
  </g>
</svg>