<?xml version="1.0" encoding="UTF-8"?>
<svg id="Calque_2" data-name="Calque 2" xmlns="http://www.w3.org/2000/svg" viewBox="0 0 32.98 32.98">
  <defs>
    <style>
      .cls-1 {
        fill: #e5373f;
      }
    </style>
  </defs>
  <g id="Calque_1-2" data-name="Calque 1">
    <g>
      <path class="cls-1" d="M4.44,18.92c-2.45,0-4.44,1.99-4.44,4.44v5.17c0,2.45,1.99,4.44,4.44,4.44s4.44-1.99,4.44-4.44v-5.17c0-2.45-1.99-4.44-4.44-4.44Z"/>
      <path class="cls-1" d="M16.49,0c-2.45,0-4.44,1.99-4.44,4.44v24.09c0,2.45,1.99,4.44,4.44,4.44s4.44-1.99,4.44-4.44V4.44c0-2.45-1.99-4.44-4.44-4.44Z"/>
      <path class="cls-1" d="M28.53,9.46c-2.45,0-4.44,1.99-4.44,4.44v14.63c0,2.45,1.99,4.44,4.44,4.44s4.44-1.99,4.44-4.44v-14.63c0-2.45-1.99-4.44-4.44-4.44Z"/>
    </g>
  </g>
</svg>