<?xml version="1.0" encoding="UTF-8"?>
<svg id="Calque_2" data-name="Calque 2" xmlns="http://www.w3.org/2000/svg" viewBox="0 0 13.86 13.84">
  <defs>
    <style>
      .cls-1 {
        fill: #fff;
      }
    </style>
  </defs>
  <g id="Calque_1-2" data-name="Calque 1">
    <g id="Layer_3" data-name="Layer 3">
      <path class="cls-1" d="M13.41,9.96s-2.79-2-3.54-1.87c-.36.06-.57.31-.98.8-.07.08-.23.27-.35.4-.26-.08-.52-.19-.76-.31-1.27-.62-2.3-1.64-2.92-2.92-.12-.25-.23-.5-.31-.76.14-.12.33-.28.41-.35.49-.41.73-.62.8-.98.13-.75-1.85-3.51-1.87-3.54-.18-.26-.47-.42-.79-.44C2.29,0,0,2.97,0,3.48c0,.03.05,2.99,3.69,6.69,3.71,3.64,6.66,3.68,6.69,3.68.5,0,3.47-2.29,3.47-3.1-.02-.32-.19-.61-.45-.79ZM10.34,12.92c-.4-.03-2.88-.36-5.99-3.4C1.28,6.4.96,3.91.93,3.53c.6-.95,1.33-1.81,2.17-2.57.02.02.04.05.07.08.64.88,1.2,1.81,1.65,2.8-.15.15-.3.29-.47.42-.25.19-.49.41-.7.66l-.11.16.03.19c.1.42.25.83.45,1.22.71,1.46,1.89,2.63,3.35,3.34.39.2.8.35,1.22.44l.19.03.16-.11c.24-.21.46-.45.66-.7.14-.17.34-.4.41-.47.99.45,1.93,1.01,2.81,1.65.04.03.07.06.08.07-.75.84-1.62,1.57-2.57,2.18h0Z"/>
    </g>
  </g>
</svg>