<?xml version="1.0" encoding="UTF-8"?>
<svg id="Calque_2" data-name="Calque 2" xmlns="http://www.w3.org/2000/svg" viewBox="0 0 33.34 31.78">
  <defs>
    <style>
      .cls-1 {
        fill: #e5373f;
      }
    </style>
  </defs>
  <g id="Calque_1-2" data-name="Calque 1">
    <g>
      <path class="cls-1" d="M26.96,8.96l-5.5-.8-2.46-4.99c-.95-1.93-3.7-1.93-4.65,0l-2.46,4.99-5.5.8c-2.13.31-2.98,2.92-1.44,4.42l3.98,3.88-.94,5.48c-.36,2.12,1.86,3.73,3.76,2.73l4.92-2.59,4.92,2.59c1.9,1,4.12-.62,3.76-2.73l-.94-5.48,3.98-3.88c1.54-1.5.69-4.11-1.44-4.42Z"/>
      <path class="cls-1" d="M8.77,2.29l-1.33-1.83c-.36-.5-1.06-.61-1.55-.25-.5.36-.61,1.06-.25,1.55l1.33,1.83c.36.5,1.06.61,1.55.25.5-.36.61-1.06.25-1.55Z"/>
      <path class="cls-1" d="M4.36,18.68c-.19-.58-.82-.9-1.4-.71l-2.19.71c-.58.19-.9.82-.71,1.4.19.58.82.9,1.4.71l2.19-.71c.58-.19.9-.82.71-1.4Z"/>
      <path class="cls-1" d="M27.45.21c-.5-.36-1.19-.25-1.55.25l-1.33,1.83c-.36.5-.25,1.19.25,1.55.5.36,1.19.25,1.55-.25l1.33-1.83c.36-.5.25-1.19-.25-1.55Z"/>
      <path class="cls-1" d="M32.57,18.68l-2.19-.71c-.58-.19-1.21.13-1.4.71s.13,1.21.71,1.4l2.19.71c.58.19,1.21-.13,1.4-.71.19-.58-.13-1.21-.71-1.4Z"/>
      <path class="cls-1" d="M16.67,27.3c-.61,0-1.11.5-1.11,1.11v2.26c0,.61.5,1.11,1.11,1.11s1.11-.5,1.11-1.11v-2.26c0-.61-.5-1.11-1.11-1.11Z"/>
    </g>
  </g>
</svg>