<?xml version="1.0" encoding="UTF-8"?>
<svg id="Calque_2" data-name="Calque 2" xmlns="http://www.w3.org/2000/svg" viewBox="0 0 146.81 36.08">
  <defs>
    <style>
      .cls-1 {
        fill: #b3b3b3;
      }
    </style>
  </defs>
  <g id="Calque_1-2" data-name="Calque 1">
    <g id="surface1">
      <path class="cls-1" d="M146.81,31.54c-3.48,0-6.96,0-10.43.01-.07,0-.15-.02-.22-.03-.12-.61-.17-9.26-.06-11.23.56-.15,8.27-.2,10.35-.08.13.3.05.63.06.95.01.3,0,.6,0,.88-.04.04-.06.06-.08.08-.02.01-.04.03-.06.04-.05,0-.1.02-.15.02h-7.83c-.12.42-.04.85-.06,1.26-.01.4,0,.81,0,1.18.04.04.06.06.08.08s.04.03.06.03c2.04,0,4.08,0,6.15,0,.14.65.04,1.27.06,1.93-.71.14-1.4.05-2.1.06-.68.02-1.36,0-2.04,0h-2.18c-.08.48-.02.95-.03,1.42,0,.45,0,.9,0,1.31.05.05.07.08.09.09s.04.02.07.02c2.77,0,5.54,0,8.31,0"/>
      <path class="cls-1" d="M100.55,25.47c1.61,0,3.15.02,4.69,0,.54,0,1.1-.11,1.55-.44.52-.38.68-1.08.48-1.77-.17-.59-.68-1-1.3-1.07-.15-.01-.3,0-.45,0-1.46,0-2.92,0-4.38,0-.19,0-.39.02-.61.03,0,1,0,1.95,0,2.91,0,.1.02.19.03.35M98.28,20.21c.14-.01.24-.03.34-.03,2.42,0,4.84,0,7.26,0,.99,0,1.87.34,2.6.99.4.35.71.82.86,1.38.32,1.12.3,2.19-.35,3.21-.46.72-1.13,1.12-1.89,1.41-.21.08-.42.14-.72.23,1.09,1.36,2.15,2.7,3.2,4.03-.04.06-.04.08-.06.09-.02.02-.04.03-.06.03-.83,0-1.66,0-2.52,0-1.05-1.36-2.1-2.72-3.14-4.07h-3.26v4.03c-.78.1-1.49.05-2.21.04-.12-.62-.16-9.73-.05-11.33"/>
      <path class="cls-1" d="M67.82,9.62c.17-1.87-.98-3.26-2.35-3.78-1.14-.44-2.3-.51-3.51-.09-1.43.49-2.33,1.41-2.66,2.87-.35,1.57.16,3.17,1.54,4.1,1.32.89,2.78.98,4.3.54.67-.2,1.26-.54,1.71-1.04.66-.74,1.11-1.61.97-2.59M63.56,3.49c1.42-.1,2.72.28,3.9,1.05,1.62,1.06,2.57,2.54,2.65,4.52.01.35.02.71,0,1.06-.12,1.52-.77,2.74-1.92,3.75-.75.66-1.61,1.12-2.55,1.37-1.16.31-2.36.33-3.57.11-.72-.14-1.41-.33-2.04-.68-1.38-.78-2.41-1.87-2.86-3.42-.83-2.85.32-5.54,2.86-6.96,1.1-.61,2.27-.88,3.53-.79"/>
      <path class="cls-1" d="M118.52,10.34v2.84h8.44c0,.38.01.7.02,1.02,0,.3,0,.6,0,.93h-10.67c-.12-.62-.17-9.13-.06-11.23.55-.14,8.42-.2,10.36-.07.12.61.03,1.23.05,1.84-.03.03-.05.05-.07.07-.02.01-.04.03-.06.03h-7.98c-.1.86-.03,1.68-.05,2.55.23.01.42.04.61.04,1.64,0,3.27,0,4.91,0,.24,0,.5-.09.77.14.14.55.04,1.14.06,1.78-.71.13-1.41.05-2.11.06-.68.01-1.36,0-2.04,0"/>
      <path class="cls-1" d="M82.49,31.53h-2.18c-2.36-2.73-4.73-5.48-7.17-8.31v8.28c-.69.13-1.37.03-2.01.07-.04-.05-.06-.06-.08-.08-.01-.02-.03-.04-.03-.06,0-3.63-.01-7.26-.01-10.88,0-.1.02-.19.03-.32h2.21c2.35,2.72,4.76,5.5,7.27,8.4-.05-1.5-.1-2.86-.12-4.22-.02-1.38,0-2.76,0-4.18h2.1"/>
      <path class="cls-1" d="M95.83,20.24v1.89c-.93.1-1.83.03-2.73.04-.93.01-1.86,0-2.79,0h-2.74v2.51c.14.02.31.05.47.06,1.71,0,3.42,0,5.14,0,.24,0,.5-.06.76.11.15.58.05,1.18.07,1.81-.71.14-1.41.05-2.11.06-.7.02-1.41,0-2.11,0h-2.09c-.2.51-.24,1.57-.11,2.83h8.47c.17.65.04,1.27.09,1.87-.04.04-.05.06-.07.08-.02.01-.04.04-.06.04-3.4,0-6.8.01-10.2.01-.12,0-.24-.01-.4-.02v-11.26c.56-.11,9.26-.15,10.41-.03"/>
      <path class="cls-1" d="M52.81,11.6c-.41-.59-1-.78-1.57-.93-.67-.17-1.37-.23-2.06-.36-1.32-.25-2.66-.41-3.85-1.09-.49-.28-.9-.64-1.17-1.14-.53-.98-.35-2.26.4-3.07.77-.84,1.75-1.18,2.83-1.38.75-.14,1.5-.18,2.25-.13,1.65.12,3.25.44,4.74,1.3-.28.57-.55,1.13-.85,1.73-.54-.18-1.07-.37-1.61-.54-.98-.31-1.99-.5-3.01-.49-.66.01-1.33.15-1.98.3-.27.06-.5.3-.73.44v.74c.23.48.71.58,1.13.69.87.21,1.75.34,2.63.5,1.19.23,2.4.4,3.49,1,.78.42,1.38.99,1.58,1.89.23,1,.11,1.93-.59,2.74-.62.71-1.41,1.11-2.29,1.35-1.2.32-2.43.4-3.65.29-1.62-.14-3.18-.58-4.62-1.36-.09-.05-.16-.12-.29-.21.28-.6.55-1.19.84-1.81.23.09.4.14.55.22.88.49,1.83.81,2.8.99,1.28.25,2.58.26,3.85-.11.19-.06.36-.16.54-.26.55-.31.67-.56.65-1.3"/>
      <path class="cls-1" d="M58.34,20.21h10.25v1.94h-8.11v2.58h6.31c0,.38.01.7.02,1.02,0,.3,0,.6,0,.97-1.09.03-2.14,0-3.19.01-1.03,0-2.06,0-3.13,0v2.85h8.54v1.95h-10.69"/>
      <path class="cls-1" d="M93.7,10.32v2.76s.04.04.06.06c.02.01.04.03.06.04s.05,0,.07,0h8.2c.18.63.04,1.25.09,1.85-.04.04-.05.06-.07.08-.02.01-.04.04-.06.04-.17,0-.35.02-.53.02h-9.89c-.13-.66-.18-9.33-.07-11.28.53-.13,9.22-.16,10.3-.03v1.92h-8.14v2.56h6.29v1.98"/>
      <path class="cls-1" d="M55.49,21.64c-.35.52-.69,1.04-1.06,1.59-.11-.05-.23-.09-.32-.15-.91-.61-1.89-.93-2.98-1.1-1.19-.19-2.29-.04-3.32.52-1.21.66-1.85,1.71-1.9,3.1-.03.81.08,1.58.52,2.3.63,1.04,1.61,1.55,2.74,1.79,1.3.28,2.56.01,3.81-.34.16-.05.31-.16.49-.26v-3.26h2.1v4.46c-.1.08-.23.24-.4.33-1.03.51-2.08.93-3.23,1.11-.91.15-1.81.2-2.7.09-2.51-.29-4.43-1.48-5.37-3.94-.16-.41-.15-.88-.26-1.31-.21-.83-.03-1.63.17-2.42.31-1.17.97-2.14,1.92-2.89.89-.71,1.94-1.14,3.05-1.35.61-.11,1.26-.04,1.89-.06,1.68-.05,3.18.51,4.57,1.41.06.04.12.09.17.15.03.03.04.09.11.22"/>
      <path class="cls-1" d="M114.93,26.79c.8.12,3.5.1,4.06-.04-.73-1.35-1.23-2.8-2.06-4.17-.7,1.46-1.35,2.83-2,4.21M123.51,31.52h-2.27c-.4-.85-.83-1.74-1.26-2.66h-6.03c-.43.89-.87,1.78-1.3,2.65h-2.36c1.85-3.81,3.67-7.55,5.49-11.3h2.21c.47.62,5.19,10.31,5.51,11.31"/>
      <path class="cls-1" d="M84.06,5.16c-.43.61-.81,1.15-1.19,1.69-.42-.23-.79-.43-1.16-.63-1.01-.56-2.1-.78-3.24-.73-1.04.05-2.04.32-2.82,1.03-1.09,1-1.53,2.24-1.21,3.72.12.57.31,1.07.66,1.56.62.85,1.49,1.27,2.43,1.49,1.47.35,2.91.09,4.28-.56.38-.18.74-.41,1.15-.64.2.29.39.57.58.85.18.27.34.54.53.83-.55.53-1.17.82-1.82,1.09-1.47.61-3.01.73-4.56.58-1.87-.18-3.46-1-4.6-2.52-.65-.86-1.01-1.88-1.06-2.99-.05-1.09.1-2.13.6-3.12.54-1.07,1.36-1.85,2.37-2.45,1.03-.61,2.15-.9,3.35-.9,1.15,0,2.29.03,3.39.46.8.31,1.54.7,2.31,1.23"/>
      <path class="cls-1" d="M110.03,5.77v9.36h-2.05s-.03-.02-.04-.04c-.01-.02-.02-.04-.03-.06,0-.02,0-.05,0-.08V5.83c-.18-.02-.35-.05-.51-.05-1.13,0-2.27,0-3.4,0-.22,0-.44-.03-.67-.04-.2-.65-.04-1.25-.1-1.8.06-.06.07-.08.09-.09.02-.01.04-.03.07-.03,3.63,0,7.26-.01,10.88-.02.12,0,.25.01.41.02v1.87c-.19.03-.38.08-.57.08-1.08,0-2.17,0-3.25,0"/>
      <path class="cls-1" d="M127.29,29.59h7.38c.22.48.23.72.14,1.87-.55.12-8.59.16-9.71.05-.11-.59-.15-9.83-.04-11.28.71-.1,1.43-.04,2.23-.03,0,.8,0,1.57,0,2.34,0,.78,0,1.56,0,2.34v2.27"/>
      <path class="cls-1" d="M86.31,3.83h2.2v11.32c-.73.03-1.45.03-2.2,0"/>
      <path class="cls-1" d="M29.47,18.16v1.09H6.25v-1.09H0v17.93h35.7c0-.2.02-.4.02-.6,0-5.77,0-11.55,0-17.32"/>
      <path class="cls-1" d="M6.25,16.99c.84-.11,1.69-.03,2.53-.05.86-.01,1.71,0,2.57,0h18.12v.99h6.25c0-5.72,0-11.44,0-17.16,0-.08,0-.15,0-.23-.01-.17-.03-.33-.05-.53H12.4C8.27,0,4.13,0,0,0v17.93h6.25"/>
    </g>
  </g>
</svg>