<?xml version="1.0" encoding="UTF-8"?>
<svg id="Calque_2" data-name="Calque 2" xmlns="http://www.w3.org/2000/svg" viewBox="0 0 27.81 27.87">
  <defs>
    <style>
      .cls-1 {
        fill: #e5373f;
      }
    </style>
  </defs>
  <g id="Calque_1-2" data-name="Calque 1">
    <g>
      <path class="cls-1" d="M9.76,5.5c-.56,0-1.25.14-1.81.42.28.28.42.56.42.97,0,.83-.69,1.39-1.39,1.39-.42,0-.69-.14-.97-.42-.28.56-.42,1.25-.42,1.81,0,2.36,1.94,4.17,4.17,4.17,2.36,0,4.17-1.94,4.17-4.17,0-2.22-1.81-4.17-4.17-4.17Z"/>
      <path class="cls-1" d="M26.99,23l-6.25-6.39-.97.97-2.08-2.08c1.11-1.67,1.81-3.61,1.81-5.83C19.49,4.94,15.74.78,11.01.08,4.48-.75-1.07,4.94.18,11.61c.69,3.89,3.89,6.95,7.78,7.64,2.92.56,5.56-.28,7.64-1.81l2.08,2.08-.97,1.11,6.25,6.39c1.11,1.11,2.92,1.11,3.89,0,1.25-1.25,1.25-2.92.14-4.03ZM9.76,16.61c-3.89,0-6.95-3.06-6.95-6.95s3.06-6.95,6.95-6.95,6.95,3.06,6.95,6.95-3.06,6.95-6.95,6.95Z"/>
    </g>
  </g>
</svg>